<svg width="894" height="240" viewBox="0 0 894 240" fill="none" xmlns="http://www.w3.org/2000/svg">
<path d="M510.117 61.0152C509.342 62.8672 509.922 64.561 510.938 65.7655L517.63 72.0291C517.435 73.5574 517.307 75.0931 517.299 76.6138L509.801 81.7481C508.378 82.7268 507.723 84.7142 508.28 86.3554L512.105 98.0093C512.654 99.6278 514.326 100.772 516.012 100.697L525.159 100.313C526.062 101.517 526.996 102.707 528.05 103.806L526.393 112.885C526.092 114.564 526.988 116.386 528.486 117.161L539.335 122.672C540.848 123.462 542.858 123.101 544.017 121.836L550.138 115.023C551.643 115.219 553.134 115.264 554.625 115.279L559.796 122.935C560.745 124.351 562.65 125.021 564.261 124.501L575.749 120.624C577.383 120.09 578.557 118.366 578.482 116.634L578.045 107.472C579.257 106.539 580.439 105.522 581.546 104.431L590.414 106.14C592.1 106.479 593.952 105.553 594.713 103.994L600.118 93.0481C600.886 91.4897 600.517 89.4345 599.237 88.2676L592.575 82.0869C592.778 80.5361 592.868 78.9626 592.883 77.4193L600.382 72.2851C601.804 71.3064 602.459 69.3189 601.902 67.6777L598.078 56.024C597.528 54.4054 595.857 53.2611 594.171 53.3363L585.024 53.7203C584.12 52.5157 583.187 51.3263 582.133 50.2272L583.849 41.1781C584.15 39.4767 583.232 37.6323 581.704 36.872L570.856 31.3613C569.342 30.616 567.37 30.9773 566.226 32.227L560.052 39.01C558.547 38.8142 557.056 38.7691 555.566 38.754L550.394 31.0977C549.445 29.6824 547.54 29.0124 545.929 29.5319L534.441 33.4089C532.808 33.9434 531.633 35.6674 531.708 37.3989L532.145 46.5609C530.956 47.4793 529.819 48.5031 528.727 49.5797L519.776 47.9009C518.105 47.5922 516.283 48.5258 515.53 50.0766L510.117 61.0152ZM518.496 61.911L521.252 56.3251L529.074 57.7856C530.383 58.034 531.806 57.5597 532.71 56.5584C534.381 54.6764 536.248 53.0352 538.303 51.6425C539.44 50.8972 540.14 49.5195 540.095 48.1493L539.741 40.0715L545.553 38.0614L550.092 44.7691C550.845 45.8833 552.178 46.5609 553.51 46.5006C555.98 46.3651 558.471 46.4856 560.918 46.9825C562.243 47.261 563.696 46.7867 564.607 45.7854L570.012 39.8682L575.523 42.6687L574.032 50.5734C573.792 51.921 574.288 53.3815 575.297 54.2924C577.157 55.9863 578.745 57.9436 580.115 60.0214C580.868 61.1582 582.238 61.8509 583.586 61.7831L591.551 61.4217L593.478 67.2938L586.861 71.9011C585.746 72.684 585.092 74.0768 585.174 75.4469C585.302 77.9463 585.129 80.4533 584.647 82.9376C584.399 84.2701 584.873 85.7156 585.859 86.6265L591.754 92.1372L588.999 97.7232L581.124 96.24C579.814 95.9916 578.391 96.4734 577.488 97.4672C575.817 99.3492 573.95 100.99 571.894 102.383C570.758 103.128 570.058 104.506 570.103 105.876L570.426 114.007L564.637 115.957L560.15 109.279C559.397 108.142 558.027 107.45 556.68 107.518C554.21 107.653 551.719 107.533 549.272 107.036C547.947 106.757 546.494 107.231 545.583 108.233L540.238 114.18L534.727 111.38L536.165 103.445C536.406 102.097 535.909 100.637 534.9 99.7256C533.041 98.0318 531.452 96.0744 530.082 93.9966C529.329 92.8824 527.997 92.2049 526.664 92.2652L518.647 92.5964L516.75 86.6716L523.337 82.1245C524.451 81.3415 525.106 79.9488 525.023 78.5787C524.895 76.0793 525.068 73.5799 525.55 71.0881C525.799 69.7556 525.324 68.3101 524.338 67.3992L518.496 61.911ZM539.259 68.9726C534.893 77.8183 538.461 88.6892 547.179 93.1159C555.897 97.5425 566.617 93.9289 570.991 85.0831C575.357 76.2374 571.789 65.3666 563.071 60.94C554.354 56.5058 543.626 60.1268 539.259 68.9726ZM546.313 72.5485C548.775 67.5723 554.632 65.5924 559.541 68.0843C564.449 70.5762 566.399 76.5235 563.937 81.4997C561.475 86.4759 555.618 88.4559 550.71 85.964C545.801 83.4721 543.852 77.5323 546.313 72.5485ZM537.769 165.756C536.993 167.608 537.588 169.227 538.589 170.507L546.765 178.088C546.486 180.128 546.374 182.153 546.374 184.178L537.166 190.539C535.744 191.518 535.089 193.506 535.646 195.147L540.155 208.893C540.705 210.512 542.384 211.656 544.062 211.581L555.106 211.114C556.303 212.74 557.636 214.314 559.074 215.782L557.056 226.848C556.755 228.527 557.651 230.349 559.149 231.125L571.985 237.644C573.498 238.435 575.508 238.073 576.667 236.808L584.135 228.512C586.168 228.798 588.178 228.934 590.196 228.934L596.444 238.186C597.393 239.601 599.297 240.271 600.908 239.752L614.467 235.175C616.101 234.64 617.275 232.924 617.2 231.185L616.74 219.983C618.352 218.763 619.835 217.393 621.288 215.932L632.166 218.033C633.852 218.372 635.704 217.446 636.465 215.887L642.864 202.924C643.632 201.365 643.263 199.31 641.983 198.143L633.807 190.57C634.086 188.514 634.281 186.489 634.281 184.449L643.406 178.11C644.829 177.132 645.483 175.144 644.926 173.503L640.417 159.756C639.867 158.138 638.196 156.993 636.51 157.069L625.458 157.535C624.254 155.894 622.936 154.343 621.491 152.868L623.561 141.831C623.862 140.13 622.944 138.286 621.416 137.525L608.58 131.006C607.067 130.26 605.094 130.622 603.95 131.872L596.422 140.138C594.404 139.852 592.364 139.716 590.361 139.716L584.113 130.464C583.164 129.048 581.26 128.378 579.649 128.898L566.09 133.475C564.456 134.01 563.282 135.733 563.357 137.473L563.847 148.757C562.251 149.969 560.715 151.272 559.269 152.725L548.391 150.624C546.72 150.316 544.898 151.249 544.145 152.8L537.769 165.756ZM546.14 166.652L549.889 159.056L559.638 160.931C560.971 161.179 562.409 160.675 563.305 159.651C565.322 157.377 567.611 155.412 570.088 153.734C571.209 152.966 571.894 151.581 571.827 150.218L571.367 140.13L579.302 137.45L584.948 145.836C585.724 146.966 587.094 147.636 588.449 147.545C591.423 147.387 594.389 147.628 597.348 148.223C598.68 148.471 600.118 147.967 601.014 146.943L607.767 139.543L615.205 143.322L613.405 153.237C613.134 154.599 613.624 156.083 614.64 157.009C616.884 159.056 618.796 161.292 620.452 163.799C621.19 164.951 622.545 165.666 623.892 165.613L633.89 165.169L636.532 173.217L628.289 178.886C627.167 179.654 626.482 181.039 626.55 182.409C626.708 185.42 626.527 188.462 625.94 191.458C625.669 192.798 626.128 194.274 627.122 195.2L634.5 202.02L630.751 209.616L620.941 207.712C619.609 207.463 618.171 207.967 617.275 208.991C615.257 211.265 612.969 213.23 610.492 214.909C609.37 215.676 608.685 217.054 608.753 218.424L609.212 228.512L601.277 231.192L595.639 222.806C594.863 221.676 593.493 221.007 592.138 221.097C589.164 221.255 586.251 221.044 583.292 220.449C581.952 220.178 580.484 220.668 579.573 221.707L572.82 229.107L565.382 225.328L567.182 215.413C567.453 214.073 566.994 212.597 566 211.671C563.756 209.624 561.791 207.358 560.135 204.851C559.397 203.699 558.042 202.984 556.695 203.037L546.697 203.473L544.055 195.425L552.298 189.757C553.42 188.989 554.105 187.603 554.037 186.233C553.879 183.222 554.06 180.181 554.647 177.184C554.918 175.844 554.459 174.369 553.465 173.443L546.14 166.652ZM570.931 174.497C565.586 185.315 569.945 198.587 580.612 204.008C591.28 209.428 604.371 205.009 609.709 194.191C615.054 183.373 610.695 170.1 600.028 164.68C589.368 159.259 576.276 163.679 570.931 174.497ZM577.985 178.073C581.418 171.117 589.646 168.346 596.504 171.824C603.363 175.31 606.095 183.651 602.663 190.607C599.23 197.563 591.001 200.334 584.143 196.856C577.285 193.37 574.552 185.029 577.985 178.073Z" fill="black"/>
<path d="M32.3416 45.3956C51.9829 45.3956 64.0432 59.7144 64.0432 80.0258C64.0432 80.4097 64.0432 81.8476 63.9152 83.1425H10.3966C10.5246 98.2443 20.5372 107.361 34.3968 107.361C45.6892 107.361 51.9829 101.376 55.1899 96.8139L61.8675 101.767C58.141 108.144 49.4157 116.47 34.2688 116.47C13.9876 116.47 0 102.023 0 81.1927C0 59.5865 14.6275 45.3956 32.3416 45.3956ZM53.6466 75.4636C53.0067 61.4083 43.378 54.2489 32.3416 54.2489C21.4331 54.2489 11.6764 62.7107 10.9085 75.4636H53.6466Z" fill="black"/>
<path d="M111.524 97.3333C114.347 102.671 119.098 107.752 128.207 107.752C134.877 107.752 140.531 103.845 140.531 96.9419C140.531 81.3207 107.03 86.6582 107.03 63.7496C107.03 52.2915 116.403 45.3956 128.463 45.3956C140.915 45.3956 147.329 53.338 149.128 58.412L141.683 62.7107C139.883 59.067 136.42 53.9854 127.823 53.9854C121.665 53.9854 116.786 57.5011 116.786 63.3581C116.786 78.5879 150.415 72.8588 150.415 96.4224C150.415 108.392 140.659 116.463 127.695 116.463C113.707 116.463 107.414 108.392 104.463 102.016L111.524 97.3333Z" fill="black"/>
<path d="M196.361 32.8987H206.501V47.0895H221.129V55.8148H206.501V90.7009C206.501 103.326 210.1 106.322 218.817 106.322C220.105 106.322 221.641 106.194 221.641 106.194V115.311C221.641 115.311 218.945 115.702 215.482 115.702C202.127 115.702 196.361 106.849 196.361 91.6194V55.8073H188.524V47.0895H196.361V32.8987Z" fill="black"/>
<path d="M287.348 71.692C295.817 71.692 302.238 74.9442 304.934 77.805V69.4787C304.934 59.978 298.64 54.5124 288.763 54.5124C280.549 54.5124 273.872 57.5087 269.122 60.3694L265.011 52.8186C269.505 49.9578 278.359 45.4032 289.651 45.4032C307.877 45.4032 315.067 55.6868 315.067 70.1336V114.784H306.341L305.19 109.055C301.719 113.09 296.073 116.47 287.092 116.47C272.457 116.47 261.676 107.105 261.676 93.9607C261.676 81.0647 272.336 71.692 287.348 71.692ZM288.763 107.873C298.512 107.873 305.31 102.023 305.31 93.8177C305.31 85.3559 298.64 79.8903 288.627 79.8903C278.487 79.8903 271.945 85.8753 271.945 93.8177C271.952 101.632 278.494 107.873 288.763 107.873Z" fill="black"/>
<path d="M413.77 63.4862C411.075 60.6255 404.141 54.9039 394.001 54.9039C380.013 54.9039 370.129 66.219 370.129 80.9368C370.129 95.5191 380.525 107.105 394.257 107.105C404.781 107.105 411.459 100.857 414.154 98.1239L417.226 106.849C414.53 109.71 406.317 116.478 393.873 116.478C373.976 116.478 359.604 100.992 359.604 80.9443C359.604 60.8965 374.367 45.4108 393.745 45.4108C405.941 45.4108 413.77 51.2678 417.233 54.6555L413.77 63.4862Z" fill="black"/>
<path d="M467.417 22.615C471.399 22.615 474.471 25.7392 474.471 29.6464C474.471 33.6816 471.399 36.8058 467.417 36.8058C463.562 36.8058 460.491 33.6816 460.491 29.6464C460.483 25.7392 463.562 22.615 467.417 22.615ZM462.41 47.0895H472.551V114.776H462.41V47.0895Z" fill="black"/>
<path d="M673.782 72.4749V114.784H663.642V72.0834C663.642 61.2803 656.964 54.7759 647.855 54.7759C637.586 54.7759 630.525 62.4547 630.525 73.6493V114.784H620.384V47.0895H630.397V56.8537C633.604 50.7332 641.049 45.3956 650.294 45.3956C665.825 45.3956 673.782 57.1172 673.782 72.4749Z" fill="black"/>
<path d="M330.206 226.986H308.773V186.242C308.773 180.122 305.822 176.478 300.688 176.478C295.681 176.478 292.474 179.994 292.474 186.242V226.986H271.041V158.651H291.962V165.675C294.273 161.512 299.664 156.95 308.645 156.95C316.602 156.95 322.505 160.338 326.103 165.931C330.206 160.594 336.5 156.95 345.225 156.95C360.756 156.95 368.066 167.106 368.066 181.552V226.986H346.633V186.242C346.633 180.122 343.554 176.478 338.419 176.478C333.413 176.478 330.206 180.385 330.206 186.242V226.986Z" fill="black"/>
<path d="M423.632 198.476C424.144 204.596 429.926 209.798 437.883 209.798C445.969 209.798 450.719 204.461 452.006 202.511L466.122 213.578C464.202 217.613 454.965 228.672 437.507 228.672C415.298 228.672 401.695 213.186 401.695 193.01C401.695 172.963 415.042 156.957 434.812 156.957C456.245 156.957 467.929 170.885 467.929 194.185C467.929 195.48 467.929 196.918 467.801 198.476H423.632ZM424.28 184.677H446.097C445.841 179.211 441.858 174.528 435.188 174.528C428.127 174.528 424.792 179.866 424.28 184.677Z" fill="black"/>
<path d="M500.248 142.767C500.248 135.871 505.382 130.925 512.187 130.925C518.985 130.925 524.255 135.871 524.255 142.767C524.255 149.535 518.985 154.481 512.187 154.481C505.382 154.481 500.248 149.535 500.248 142.767ZM523.096 226.986H501.663V158.651H523.096V226.986Z" fill="black"/>
<path d="M682.109 199.387C682.109 205.763 685.835 209.144 690.969 209.144C696.872 209.144 700.214 204.852 700.214 199.387V158.644H721.647V226.978H700.726V219.954C698.159 223.989 692.257 228.672 683.787 228.672C662.731 228.672 660.683 210.453 660.683 196.526V158.651H682.116V199.387H682.109Z" fill="black"/>
<path d="M777.206 198.476C777.718 204.596 783.5 209.798 791.457 209.798C799.543 209.798 804.293 204.461 805.58 202.511L819.696 213.578C817.776 217.613 808.539 228.672 791.081 228.672C768.872 228.672 755.269 213.186 755.269 193.01C755.269 172.963 768.616 156.957 788.386 156.957C809.819 156.957 821.502 170.885 821.502 194.185C821.502 195.48 821.503 196.918 821.375 198.476H777.206ZM777.846 184.677H799.663C799.407 179.211 795.424 174.528 788.754 174.528C781.693 174.528 778.358 179.866 777.846 184.677Z" fill="black"/>
<path d="M894 179.083C893.097 178.955 892.073 178.82 890.529 178.82C880.133 178.82 876.67 186.506 876.67 196.782V226.978H855.237V158.644H876.158V167.753C879.365 161.121 885.659 156.95 894 156.95V179.083Z" fill="black"/>
<path d="M599.855 164.817H612.833V228.679L598.936 234.988V205.748C598.025 206.847 593.945 210.22 587.29 210.22C574.642 210.22 566.655 200.682 566.655 186.928C566.655 173.339 575.47 163.725 588.043 163.725C594.449 163.725 598.612 166.842 599.862 168.28V164.817H599.855ZM589.947 176.034C584.369 176.034 580.544 180.257 580.544 186.837C580.544 193.342 584.286 197.813 589.947 197.813C595.443 197.813 599.35 193.846 599.35 186.837C599.35 180.935 595.94 176.034 589.947 176.034Z" fill="black"/>
<path d="M555.445 53.0444C569.508 53.0444 579.415 62.8312 579.415 76.2466C579.415 89.5868 569.267 99.5392 555.445 99.5392C541.548 99.5392 531.731 89.7449 531.731 76.4123C531.723 62.9968 541.962 53.0444 555.445 53.0444ZM555.445 87.1401C561.189 87.1401 565.51 82.5855 565.51 76.2542C565.51 69.7572 561.106 65.4511 555.445 65.4511C549.701 65.4511 545.621 69.9229 545.621 76.4273C545.621 82.8414 549.784 87.1401 555.445 87.1401Z" fill="black"/>
<path d="M584.617 0L570.283 15.561H561.573L570.901 0H584.617Z" fill="black"/>
</svg>
